<svg xmlns="http://www.w3.org/2000/svg" viewBox="0 0 64 64" role="img" aria-labelledby="title">
  <title id="title">Canopryx</title>
  <rect width="64" height="64" rx="15" fill="#102418" />
  <path d="M32 7 53 19v26L32 57 11 45V19Z" fill="none" stroke="#6bc68e" stroke-width="3" />
  <path d="M32 17c-8 2-13 7-13 15 0 9 7 14 13 16 6-2 13-7 13-16 0-8-5-13-13-15Z" fill="#1d7c49" />
  <path d="M32 23v21M32 31l-6-5M32 36l7-6M32 41l-5-3" fill="none" stroke="#f7faf5" stroke-width="2.5" stroke-linecap="round" stroke-linejoin="round" />
  <circle cx="26" cy="26" r="1.8" fill="#f7faf5" />
  <circle cx="39" cy="30" r="1.8" fill="#f7faf5" />
  <circle cx="27" cy="38" r="1.8" fill="#f7faf5" />
</svg>
